<?xml version="1.0" encoding="UTF-8"?>
<svg width="2975px" height="603px" viewBox="0 0 2975 603" version="1.1" xmlns="http://www.w3.org/2000/svg" xmlns:xlink="http://www.w3.org/1999/xlink">
    <!-- Generator: Sketch 47.1 (45422) - http://www.bohemiancoding.com/sketch -->
    <title>datasourcerer_icon_and_text</title>
    <desc>Created with Sketch.</desc>
    <defs>
        <linearGradient x1="50%" y1="100%" x2="50%" y2="3.061617e-15%" id="linearGradient-1">
            <stop stop-color="#7CDED4" offset="0%"></stop>
            <stop stop-color="#147CA2" offset="100%"></stop>
        </linearGradient>
        <polygon id="path-2" points="106.919998 0.0613886998 212.916446 273.799992 0.923550463 273.799992"></polygon>
    </defs>
    <g id="Page-1" stroke="none" stroke-width="1" fill="none" fill-rule="evenodd">
        <g id="datasourcerer_icon_and_text">
            <g id="Group" transform="translate(385.000000, 0.000000)">
                <g id="Sourcerer">
                    <circle id="BG" fill="url(#linearGradient-1)" cx="426.5" cy="301.5" r="301.5"></circle>
                    <g id="Face-BG" stroke-width="1" transform="translate(317.000000, 321.000000)" fill="#F4DCB8">
                        <rect id="Rectangle-2" x="4" y="0" width="207" height="179"></rect>
                        <circle id="Oval-Copy-3" cx="172" cy="97" r="45"></circle>
                        <circle id="Oval-Copy-4" cx="45" cy="97" r="45"></circle>
                    </g>
                    <g id="Eyes" stroke-width="1" transform="translate(358.000000, 388.000000)" stroke="#6B5A52">
                        <path d="M0,11 C9.07209626,-3.22778853 42.5621545,-4.09907626 50,11" id="Path" stroke-width="9.10000026"></path>
                        <path d="M83,11 C92.0720963,-3.22778853 125.562155,-4.09907626 133,11" id="Path-Copy" stroke-width="9.10000026"></path>
                    </g>
                    <g id="Beard" stroke-width="1" transform="translate(311.000000, 442.000000)" fill="#FFFFFF">
                        <circle id="Oval" cx="114.5" cy="62.5" r="62.5"></circle>
                        <circle id="Oval-Copy" cx="45" cy="45" r="45"></circle>
                        <circle id="Oval-Copy-2" cx="188" cy="46" r="45"></circle>
                        <circle id="Oval-Copy-3" cx="188" cy="46" r="45"></circle>
                    </g>
                    <path d="M421.815385,512.083721 C421.815385,510.953483 421.846154,509.948842 421.907692,509.069767 C421.969231,508.190693 422.041025,507.343027 422.123077,506.526744 C422.205129,505.710461 422.276923,504.89419 422.338462,504.077907 C422.4,503.261624 422.430769,502.351168 422.430769,501.346512 C422.430769,500.802323 422.307694,500.258142 422.061538,499.713953 C421.815383,499.169765 421.364106,498.677909 420.707692,498.238372 C420.051279,497.798835 419.179493,497.443025 418.092308,497.17093 C417.005123,496.898836 415.641034,496.741861 414,496.7 L414,491.3 C415.641034,491.258139 417.005123,491.101164 418.092308,490.82907 C419.179493,490.556975 420.051279,490.201165 420.707692,489.761628 C421.364106,489.322091 421.815383,488.830235 422.061538,488.286047 C422.307694,487.741858 422.430769,487.197677 422.430769,486.653488 C422.430769,485.690693 422.4,484.790702 422.338462,483.953488 C422.276923,483.116275 422.205129,482.289539 422.123077,481.473256 C422.041025,480.656973 421.969231,479.798842 421.907692,478.898837 C421.846154,477.998833 421.815385,477.004657 421.815385,475.916279 C421.815385,472.525564 422.738452,470.191867 424.584615,468.915116 C426.430778,467.638366 429.323057,467 433.261538,467 L438,467 L438,471.897674 L435.476923,471.897674 C434.205122,471.897674 433.158978,471.960464 432.338462,472.086047 C431.517945,472.211629 430.882054,472.441859 430.430769,472.776744 C429.979485,473.11163 429.661539,473.561625 429.476923,474.126744 C429.292307,474.691863 429.2,475.413949 429.2,476.293023 C429.2,477.96745 429.251282,479.620922 429.353846,481.253488 C429.456411,482.886055 429.507692,484.644177 429.507692,486.527907 C429.507692,488.913965 429.035902,490.640692 428.092308,491.70814 C427.148713,492.775587 425.569242,493.497673 423.353846,493.874419 L423.353846,494.125581 C425.569242,494.502327 427.148713,495.224413 428.092308,496.29186 C429.035902,497.359308 429.507692,499.086035 429.507692,501.472093 C429.507692,503.397684 429.456411,505.155806 429.353846,506.746512 C429.251282,508.337217 429.2,509.990689 429.2,511.706977 C429.2,512.586051 429.292307,513.308137 429.476923,513.873256 C429.661539,514.438375 429.979485,514.88837 430.430769,515.223256 C430.882054,515.558141 431.517945,515.788371 432.338462,515.913953 C433.158978,516.039536 434.205122,516.102326 435.476923,516.102326 L438,516.102326 L438,521 L433.261538,521 C429.323057,521 426.430778,520.361634 424.584615,519.084884 C422.738452,517.808133 421.815385,515.474436 421.815385,512.083721 Z" id="Mouth-Outlined" fill="#6B5A52" transform="translate(426.000000, 494.000000) rotate(-90.000000) translate(-426.000000, -494.000000) "></path>
                    <g id="Braces-Outlined" stroke-width="1" transform="translate(284.000000, 308.000000)" fill="#FFFFFF">
                        <path d="M34.379,187.6365 C34.379,182.960977 34.5088737,178.675144 34.768625,174.778875 C35.0283763,170.882606 35.3314149,167.116268 35.67775,163.47975 C36.0240851,159.843232 36.3271237,156.163477 36.586875,152.440375 C36.8466263,148.717273 36.9765,144.691188 36.9765,140.362 C36.9765,138.110822 36.4570052,135.816387 35.418,133.478625 C34.3789948,131.140863 32.4741805,129.062884 29.7035,127.244625 C26.9328195,125.426366 23.1664821,123.911173 18.404375,122.699 C13.6422679,121.486827 7.62478636,120.88075 0.35175,120.88075 L0.35175,102.69825 C7.62478636,102.69825 13.6422679,102.092173 18.404375,100.88 C23.1664821,99.6678273 26.9328195,98.1526341 29.7035,96.334375 C32.4741805,94.5161159 34.3789948,92.4814279 35.418,90.23025 C36.4570052,87.9790721 36.9765,85.6413455 36.9765,83.217 C36.9765,75.078126 36.5435877,67.4155776 35.67775,60.229125 C34.8119123,53.0426724 34.379,44.9472117 34.379,35.9425 C34.379,29.0157987 35.3314071,23.2580646 37.23625,18.669125 C39.1410929,14.0801854 42.0848968,10.4004305 46.06775,7.62975 C50.0506032,4.85906948 55.0723864,2.91096396 61.13325,1.785375 C67.1941136,0.659786039 74.3804584,0.097 82.6925,0.097 L100.61525,0.097 L100.61525,16.46125 L88.66675,16.46125 C82.6058864,16.46125 77.6706857,16.8075799 73.861,17.50025 C70.0513143,18.1929201 67.0642192,19.3617834 64.899625,21.006875 C62.7350308,22.6519666 61.2631289,24.8165282 60.483875,27.500625 C59.7046211,30.1847218 59.315,33.4315643 59.315,37.24125 C59.315,44.5142864 59.5314562,51.7872136 59.964375,59.06025 C60.3972938,66.3332864 60.61375,73.9525435 60.61375,81.91825 C60.61375,91.0961292 58.7955182,97.8928529 55.159,102.308625 C51.5224818,106.724397 45.1153792,109.711492 35.9375,111.27 L35.9375,112.309 C45.1153792,113.867508 51.5224818,116.854603 55.159,121.270375 C58.7955182,125.686147 60.61375,132.482871 60.61375,141.66075 C60.61375,149.972792 60.3972938,157.592049 59.964375,164.51875 C59.5314562,171.445451 59.315,178.718379 59.315,186.33775 C59.315,190.320603 59.7046211,193.610737 60.483875,196.20825 C61.2631289,198.805763 62.7350308,200.927033 64.899625,202.572125 C67.0642192,204.217217 70.0513143,205.38608 73.861,206.07875 C77.6706857,206.77142 82.6058864,207.11775 88.66675,207.11775 L100.61525,207.11775 L100.61525,223.482 L82.6925,223.482 C74.3804584,223.482 67.1941136,222.919214 61.13325,221.793625 C55.0723864,220.668036 50.0506032,218.719931 46.06775,215.94925 C42.0848968,213.178569 39.1410929,209.498815 37.23625,204.909875 C35.3314071,200.320935 34.379,194.563201 34.379,187.6365 Z" id="{"></path>
                        <path d="M216.379,187.6365 C216.379,182.960977 216.508874,178.675144 216.768625,174.778875 C217.028376,170.882606 217.331415,167.116268 217.67775,163.47975 C218.024085,159.843232 218.327124,156.163477 218.586875,152.440375 C218.846626,148.717273 218.9765,144.691188 218.9765,140.362 C218.9765,138.110822 218.457005,135.816387 217.418,133.478625 C216.378995,131.140863 214.474181,129.062884 211.7035,127.244625 C208.932819,125.426366 205.166482,123.911173 200.404375,122.699 C195.642268,121.486827 189.624786,120.88075 182.35175,120.88075 L182.35175,102.69825 C189.624786,102.69825 195.642268,102.092173 200.404375,100.88 C205.166482,99.6678273 208.932819,98.1526341 211.7035,96.334375 C214.474181,94.5161159 216.378995,92.4814279 217.418,90.23025 C218.457005,87.9790721 218.9765,85.6413455 218.9765,83.217 C218.9765,75.078126 218.543588,67.4155776 217.67775,60.229125 C216.811912,53.0426724 216.379,44.9472117 216.379,35.9425 C216.379,29.0157987 217.331407,23.2580646 219.23625,18.669125 C221.141093,14.0801854 224.084897,10.4004305 228.06775,7.62975 C232.050603,4.85906948 237.072386,2.91096396 243.13325,1.785375 C249.194114,0.659786039 256.380458,0.097 264.6925,0.097 L282.61525,0.097 L282.61525,16.46125 L270.66675,16.46125 C264.605886,16.46125 259.670686,16.8075799 255.861,17.50025 C252.051314,18.1929201 249.064219,19.3617834 246.899625,21.006875 C244.735031,22.6519666 243.263129,24.8165282 242.483875,27.500625 C241.704621,30.1847218 241.315,33.4315643 241.315,37.24125 C241.315,44.5142864 241.531456,51.7872136 241.964375,59.06025 C242.397294,66.3332864 242.61375,73.9525435 242.61375,81.91825 C242.61375,91.0961292 240.795518,97.8928529 237.159,102.308625 C233.522482,106.724397 227.115379,109.711492 217.9375,111.27 L217.9375,112.309 C227.115379,113.867508 233.522482,116.854603 237.159,121.270375 C240.795518,125.686147 242.61375,132.482871 242.61375,141.66075 C242.61375,149.972792 242.397294,157.592049 241.964375,164.51875 C241.531456,171.445451 241.315,178.718379 241.315,186.33775 C241.315,190.320603 241.704621,193.610737 242.483875,196.20825 C243.263129,198.805763 244.735031,200.927033 246.899625,202.572125 C249.064219,204.217217 252.051314,205.38608 255.861,206.07875 C259.670686,206.77142 264.605886,207.11775 270.66675,207.11775 L282.61525,207.11775 L282.61525,223.482 L264.6925,223.482 C256.380458,223.482 249.194114,222.919214 243.13325,221.793625 C237.072386,220.668036 232.050603,218.719931 228.06775,215.94925 C224.084897,213.178569 221.141093,209.498815 219.23625,204.909875 C217.331407,200.320935 216.379,194.563201 216.379,187.6365 Z" id="{-copy" transform="translate(232.483500, 111.789500) scale(-1, 1) translate(-232.483500, -111.789500) "></path>
                    </g>
                    <g id="Hat" stroke-width="1" transform="translate(424.500000, 190.000000) rotate(-360.000000) translate(-424.500000, -190.000000) translate(318.000000, 53.000000)">
                        <mask id="mask-3" fill="white">
                            <use xlink:href="#path-2"></use>
                        </mask>
                        <use id="Mask" fill="#BABABA" xlink:href="#path-2"></use>
                        <polygon id="Triangle-Copy" fill="#8859BA" mask="url(#mask-3)" points="106.919998 0.0613886998 212.916446 273.799992 0.923550463 273.799992"></polygon>
                        <rect id="Rectangle" fill-opacity="0.0500000007" fill="#000000" mask="url(#mask-3)" x="107.399998" y="-149.559999" width="159.359997" height="493.43999"></rect>
                        <g id="signs-Outlines" opacity="0.251245471" style="mix-blend-mode: luminosity;" mask="url(#mask-3)" fill="#FFEE0F">
                            <g transform="translate(-18.199999, -45.200001)">
                                <path d="M52.2357296,258.0216 L64.9100608,258.0216 L64.9100608,261.372779 L57.047679,261.372779 L57.047679,291.619319 L64.9100608,291.619319 L64.9100608,294.970498 L52.2357296,294.970498 L52.2357296,258.0216 Z M81.890695,291.619319 L81.890695,261.372779 L74.0712771,261.372779 L74.0712771,258.0216 L86.7456083,258.0216 L86.7456083,294.970498 L74.0712771,294.970498 L74.0712771,291.619319 L81.890695,291.619319 Z" id="[]" transform="translate(69.490669, 276.496049) rotate(17.000000) translate(-69.490669, -276.496049) "></path>
                                <path d="M143.890571,250.029634 C143.890571,249.256281 143.912053,248.568867 143.955017,247.96737 C143.997981,247.365874 144.048105,246.785868 144.10539,246.227335 C144.162676,245.668802 144.2128,245.110278 144.255764,244.551745 C144.298728,243.993213 144.320209,243.370243 144.320209,242.682819 C144.320209,242.310464 144.234283,241.938114 144.062426,241.565759 C143.89057,241.193404 143.575505,240.856857 143.117222,240.556109 C142.658939,240.25536 142.050291,240.011901 141.291259,239.825724 C140.532227,239.639546 139.579872,239.532138 138.434164,239.503495 L138.434164,235.808605 C139.579872,235.779962 140.532227,235.672554 141.291259,235.486376 C142.050291,235.300199 142.658939,235.05674 143.117222,234.755991 C143.575505,234.455243 143.89057,234.118696 144.062426,233.746341 C144.234283,233.373986 144.320209,233.001636 144.320209,232.629281 C144.320209,231.970499 144.298728,231.35469 144.255764,230.781836 C144.2128,230.208983 144.162676,229.643298 144.10539,229.084765 C144.048105,228.526232 143.997981,227.939066 143.955017,227.323248 C143.912053,226.70743 143.890571,226.027176 143.890571,225.282466 C143.890571,222.962407 144.535022,221.3656 145.823944,220.491998 C147.112865,219.618396 149.132145,219.181601 151.881844,219.181601 L155.190059,219.181601 L155.190059,222.53278 L153.428542,222.53278 C152.540619,222.53278 151.810241,222.575744 151.237387,222.661672 C150.664533,222.7476 150.220578,222.905132 149.905508,223.134274 C149.590438,223.363416 149.368461,223.67132 149.239568,224.057996 C149.110676,224.444673 149.046231,224.938752 149.046231,225.540249 C149.046231,226.685957 149.082034,227.817326 149.153641,228.934392 C149.225247,230.051457 149.26105,231.254432 149.26105,232.543354 C149.26105,234.175988 148.931664,235.357481 148.272882,236.08787 C147.6141,236.818259 146.511373,237.312338 144.964667,237.570122 L144.964667,237.741978 C146.511373,237.999762 147.6141,238.493841 148.272882,239.22423 C148.931664,239.954619 149.26105,241.136112 149.26105,242.768746 C149.26105,244.08631 149.225247,245.289286 149.153641,246.377708 C149.082034,247.466131 149.046231,248.597501 149.046231,249.771851 C149.046231,250.373348 149.110676,250.867427 149.239568,251.254104 C149.368461,251.64078 149.590438,251.948684 149.905508,252.177826 C150.220578,252.406968 150.664533,252.5645 151.237387,252.650428 C151.810241,252.736356 152.540619,252.77932 153.428542,252.77932 L155.190059,252.77932 L155.190059,256.130499 L151.881844,256.130499 C149.132145,256.130499 147.112865,255.693704 145.823944,254.820102 C144.535022,253.9465 143.890571,252.349693 143.890571,250.029634 Z M166.112793,252.77932 C167.000717,252.77932 167.723934,252.736356 168.282467,252.650428 C168.840999,252.5645 169.277794,252.406968 169.592864,252.177826 C169.907933,251.948684 170.129911,251.64078 170.258803,251.254104 C170.387695,250.867427 170.45214,250.373348 170.45214,249.771851 C170.45214,248.597501 170.423498,247.466131 170.366213,246.377708 C170.308927,245.289286 170.280285,244.08631 170.280285,242.768746 C170.280285,241.136112 170.609671,239.954619 171.268453,239.22423 C171.927235,238.493841 173.029963,237.999762 174.576668,237.741978 L174.576668,237.570122 C173.029963,237.312338 171.927235,236.818259 171.268453,236.08787 C170.609671,235.357481 170.280285,234.175988 170.280285,232.543354 C170.280285,231.254432 170.308927,230.051457 170.366213,228.934392 C170.423498,227.817326 170.45214,226.685957 170.45214,225.540249 C170.45214,224.938752 170.387695,224.444673 170.258803,224.057996 C170.129911,223.67132 169.907933,223.363416 169.592864,223.134274 C169.277794,222.905132 168.840999,222.7476 168.282467,222.661672 C167.723934,222.575744 167.000717,222.53278 166.112793,222.53278 L164.351276,222.53278 L164.351276,219.181601 L167.659491,219.181601 C170.40919,219.181601 172.42847,219.618396 173.717392,220.491998 C175.006313,221.3656 175.650764,222.962407 175.650764,225.282466 C175.650764,226.027176 175.629283,226.70743 175.586319,227.323248 C175.543355,227.939066 175.48607,228.526232 175.414463,229.084765 C175.342856,229.643298 175.285572,230.208983 175.242608,230.781836 C175.199644,231.35469 175.178162,231.970499 175.178162,232.629281 C175.178162,233.001636 175.264089,233.373986 175.435945,233.746341 C175.607801,234.118696 175.922866,234.455243 176.381149,234.755991 C176.839433,235.05674 177.448081,235.300199 178.207112,235.486376 C178.966144,235.672554 179.932821,235.779962 181.107171,235.808605 L181.107171,239.503495 C179.932821,239.532138 178.966144,239.639546 178.207112,239.825724 C177.448081,240.011901 176.839433,240.25536 176.381149,240.556109 C175.922866,240.856857 175.607801,241.193404 175.435945,241.565759 C175.264089,241.938114 175.178162,242.310464 175.178162,242.682819 C175.178162,243.370243 175.199644,243.993213 175.242608,244.551745 C175.285572,245.110278 175.342856,245.668802 175.414463,246.227335 C175.48607,246.785868 175.543355,247.365874 175.586319,247.96737 C175.629283,248.568867 175.650764,249.256281 175.650764,250.029634 C175.650764,252.349693 175.006313,253.9465 173.717392,254.820102 C172.42847,255.693704 170.40919,256.130499 167.659491,256.130499 L164.351276,256.130499 L164.351276,252.77932 L166.112793,252.77932 Z" id="{}" transform="translate(159.770668, 237.656050) rotate(17.000000) translate(-159.770668, -237.656050) "></path>
                                <path d="M94.056436,143.874616 L98.7824578,143.874616 L99.25506,146.538374 L99.4269153,146.538374 C99.8279131,145.65045 100.379277,144.898591 101.081023,144.282773 C101.782769,143.666955 102.749446,143.35905 103.981082,143.35905 C104.926291,143.35905 105.721114,143.652633 106.365575,144.239809 C107.010035,144.826984 107.461151,145.693413 107.718935,146.839121 C108.119933,145.865269 108.699939,145.041804 109.458971,144.3687 C110.218002,143.695597 111.199,143.35905 112.401993,143.35905 C113.891414,143.35905 115.051426,143.967698 115.882064,145.185013 C116.712702,146.402328 117.128015,148.085061 117.128015,150.233264 L117.128015,165.184678 L111.199006,165.184678 L111.199006,150.705866 C111.199006,149.388302 110.798014,148.72953 109.996019,148.72953 C109.222666,148.72953 108.563894,149.416944 108.019682,150.791794 L108.019682,165.184678 L103.164769,165.184678 L103.164769,150.705866 C103.164769,149.388302 102.749456,148.72953 101.918818,148.72953 C101.51782,148.72953 101.174113,148.901383 100.887686,149.245096 C100.601259,149.588808 100.300515,150.104369 99.9854452,150.791794 L99.9854452,165.184678 L94.056436,165.184678 L94.056436,143.874616 Z M121.090608,159.255669 C121.090608,158.052676 121.348388,157.000072 121.863957,156.097827 C122.379525,155.195582 123.20299,154.429401 124.334377,153.799262 C125.465764,153.169123 126.919359,152.660722 128.695206,152.274046 C130.471054,151.887369 132.619224,151.622428 135.139781,151.479215 C135.025211,150.505363 134.602737,149.746343 133.872348,149.202132 C133.141959,148.65792 132.046393,148.385819 130.585615,148.385819 C129.554478,148.385819 128.516196,148.564833 127.470737,148.922867 C126.425278,149.280901 125.301069,149.760659 124.098076,150.362155 L121.863957,146.237627 C123.324734,145.406989 124.892899,144.719574 126.568496,144.175363 C128.244094,143.631152 129.998433,143.35905 131.831566,143.35905 C134.810407,143.35905 137.159073,144.146713 138.877635,145.722061 C140.596197,147.29741 141.455465,149.717681 141.455465,152.982949 L141.455465,165.184678 L136.299805,165.184678 L135.827203,162.778703 L135.655347,162.778703 C134.566925,163.609342 133.378271,164.303917 132.089349,164.862449 C130.800428,165.420982 129.468562,165.700244 128.093713,165.700244 C127.00529,165.700244 126.031453,165.535551 125.172172,165.20616 C124.312891,164.876769 123.582513,164.418493 122.981016,163.831317 C122.37952,163.244142 121.914083,162.563888 121.584692,161.790535 C121.255301,161.017182 121.090608,160.172235 121.090608,159.255669 Z M127.148508,158.783067 C127.148508,159.470492 127.413449,159.978892 127.943339,160.308283 C128.473229,160.637674 129.196446,160.802367 130.113013,160.802367 C131.058222,160.802367 131.946132,160.609032 132.776771,160.222355 C133.607409,159.835679 134.395071,159.355921 135.139781,158.783067 L135.139781,155.260032 C133.564433,155.34596 132.26121,155.489172 131.230072,155.689671 C130.198935,155.89017 129.382631,156.140789 128.781134,156.441538 C128.179637,156.742286 127.757164,157.093154 127.513701,157.494152 C127.270238,157.89515 127.148508,158.324784 127.148508,158.783067 Z M153.838969,166.860268 L153.838969,173.090024 L147.523285,173.090024 L147.523285,143.874616 L152.678946,143.874616 L153.151548,146.022808 L153.280439,146.022808 C154.13972,145.249455 155.127879,144.612165 156.244944,144.110917 C157.362009,143.60967 158.493379,143.35905 159.639087,143.35905 C160.956651,143.35905 162.145305,143.616831 163.205085,144.132399 C164.264865,144.647968 165.167096,145.378346 165.911807,146.323555 C166.656517,147.268764 167.222202,148.407294 167.608878,149.73918 C167.995554,151.071065 168.18889,152.553303 168.18889,154.185936 C168.18889,156.019069 167.931109,157.644518 167.415541,159.062332 C166.899972,160.480145 166.212558,161.683121 165.353277,162.671294 C164.493996,163.659467 163.512998,164.411327 162.410254,164.926895 C161.30751,165.442464 160.154659,165.700244 158.951665,165.700244 C157.003962,165.700244 155.228141,164.926903 153.62415,163.380197 L153.838969,166.860268 Z M153.838969,159.126777 C154.440466,159.642346 155.063435,160.007535 155.707896,160.222355 C156.352357,160.437175 156.946684,160.544584 157.490895,160.544584 C158.693888,160.544584 159.696368,160.050505 160.498363,159.062332 C161.300359,158.074159 161.701351,156.477352 161.701351,154.271864 C161.701351,150.433742 160.398127,148.51471 157.791642,148.51471 C156.445435,148.51471 155.127891,149.173483 153.838969,150.491047 L153.838969,159.126777 Z" id="map" transform="translate(131.122663, 158.224537) rotate(17.000000) translate(-131.122663, -158.224537) "></path>
                                <path d="M2.74814665,67.9319272 C2.74814665,66.1847225 3.00592708,64.6237188 3.52149567,63.2488692 C4.03706427,61.8740196 4.71731817,60.7068471 5.56227781,59.7473167 C6.40723745,58.7877862 7.37391406,58.0502478 8.46233664,57.5346792 C9.55075922,57.0191106 10.6821289,56.7613302 11.8564796,56.7613302 C13.0881156,56.7613302 14.1192374,56.9689866 14.9498756,57.3843058 C15.7805139,57.7996249 16.5681764,58.3509886 17.3128865,59.0384134 L17.0980674,55.7301982 L17.0980674,48.4693101 L23.413751,48.4693101 L23.413751,78.5869581 L18.2580909,78.5869581 L17.7854887,76.3958025 L17.6565972,76.3958025 C16.8546016,77.1691554 15.938049,77.8136065 14.9069118,78.3291751 C13.8757746,78.8447437 12.8160106,79.1025241 11.7275881,79.1025241 C10.3813812,79.1025241 9.15692414,78.8447437 8.05418021,78.3291751 C6.95143628,77.8136065 6.00624137,77.0760681 5.21856714,76.1165376 C4.4308929,75.1570072 3.82224466,73.9898347 3.39260417,72.6149851 C2.96296368,71.2401355 2.74814665,69.6791318 2.74814665,67.9319272 Z M9.23568566,67.8459995 C9.23568566,69.9655592 9.59371403,71.5122418 10.3097815,72.4860936 C11.025849,73.4599454 12.0426496,73.946864 13.3602138,73.946864 C14.0762813,73.946864 14.7350535,73.7964921 15.3365502,73.4957437 C15.9380468,73.1949954 16.5252134,72.6865951 17.0980674,71.9705276 L17.0980674,63.3347969 C16.5252134,62.8192283 15.9452074,62.4540393 15.3580321,62.2392191 C14.7708567,62.0243988 14.1622085,61.9169903 13.5320691,61.9169903 C12.3577184,61.9169903 11.3480784,62.4039089 10.5031188,63.3777607 C9.65815914,64.3516125 9.23568566,65.8410105 9.23568566,67.8459995 Z M49.2449352,78.5869581 L44.0892751,78.5869581 L43.6166729,75.5365259 L43.4448175,75.5365259 C42.4996085,76.6249484 41.4541656,77.4913771 40.3084576,78.1358378 C39.1627496,78.7802986 37.816563,79.1025241 36.2698572,79.1025241 C33.8352277,79.1025241 32.0737281,78.3291828 30.9853055,76.7824771 C29.896883,75.2357713 29.3526798,73.1162433 29.3526798,70.4238296 L29.3526798,57.2768962 L35.6683635,57.2768962 L35.6683635,69.6075167 C35.6683635,71.0396517 35.8831805,72.0850945 36.312821,72.7438766 C36.7424615,73.4026587 37.5587662,73.7320448 38.7617596,73.7320448 C39.5637552,73.7320448 40.2726513,73.5601912 40.8884694,73.2164788 C41.5042874,72.8727664 42.1845413,72.2283153 42.9292515,71.2831062 L42.9292515,57.2768962 L49.2449352,57.2768962 L49.2449352,78.5869581 Z M55.5275747,67.9319272 C55.5275747,66.1560798 55.8641213,64.5735944 56.5372248,63.1844234 C57.2103282,61.7952525 58.1125597,60.62808 59.2439463,59.6828709 C60.375333,58.7376618 61.6857168,58.0144445 63.1751372,57.5131973 C64.6645576,57.01195 66.2255613,56.7613302 67.8581952,56.7613302 C69.5481144,56.7613302 71.0733153,57.0334318 72.4338435,57.577643 C73.7943718,58.1218543 74.932902,58.8092688 75.8494684,59.6399071 L72.9279276,63.549616 C71.3525792,62.4325508 69.7772543,61.8740265 68.2019058,61.8740265 C66.3687731,61.8740265 64.879375,62.4182296 63.733667,63.5066522 C62.5879591,64.5950748 62.0151137,66.0701517 62.0151137,67.9319272 C62.0151137,69.7937026 62.5664774,71.2687795 63.6692213,72.3572021 C64.7719652,73.4456247 66.2112393,73.9898278 67.9870867,73.9898278 C69.1041519,73.9898278 70.1352737,73.7893319 71.0804827,73.3883341 C72.0256918,72.9873363 72.8706388,72.5147389 73.615349,71.9705276 L76.193179,75.9661642 C74.9042576,77.0545868 73.4793046,77.8494098 71.9182775,78.350657 C70.3572504,78.8519043 68.8463707,79.1025241 67.385593,79.1025241 C65.6956737,79.1025241 64.13467,78.8519043 62.702535,78.350657 C61.2704,77.8494098 60.0173007,77.1261925 58.9431995,76.1809834 C57.8690983,75.2357743 57.0313119,74.0686018 56.4298152,72.6794309 C55.8283185,71.2902599 55.5275747,69.7077745 55.5275747,67.9319272 Z M80.9720843,67.9319272 C80.9720843,66.1847225 81.2799887,64.6237188 81.8958068,63.2488692 C82.5116248,61.8740196 83.3350901,60.7068471 84.3662272,59.7473167 C85.3973644,58.7877862 86.5788581,58.0502478 87.9107436,57.5346792 C89.2426291,57.0191106 90.6246186,56.7613302 92.0567536,56.7613302 C93.6893875,56.7613302 95.1358221,57.0191106 96.3961009,57.5346792 C97.6563797,58.0502478 98.7018225,58.7663045 99.5324608,59.6828709 C100.363099,60.5994373 100.993229,61.680683 101.42287,62.9266404 C101.85251,64.1725979 102.067327,65.5259451 102.067327,66.9867228 C102.067327,67.5595768 102.038685,68.1037799 101.981399,68.6193485 C101.924114,69.1349171 101.866829,69.5215877 101.809544,69.779372 L87.4596233,69.779372 C87.6887649,71.3833632 88.38334,72.5362146 89.5433693,73.2379607 C90.7033986,73.9397068 92.071067,74.2905747 93.6464155,74.2905747 C94.6202673,74.2905747 95.5439805,74.168845 96.4175828,73.9253821 C97.2911851,73.6819191 98.2005772,73.3167302 99.1457863,72.8298043 L101.20805,76.6106217 C100.005057,77.3839746 98.6588703,77.9926228 97.1694499,78.4365847 C95.6800295,78.8805465 94.2192738,79.1025241 92.7871388,79.1025241 C91.1258622,79.1025241 89.5791796,78.8519043 88.1470447,78.350657 C86.7149097,77.8494098 85.468971,77.1190319 84.4091911,76.1595015 C83.3494112,75.199971 82.5116248,74.0327985 81.8958068,72.6579489 C81.2799887,71.2830994 80.9720843,69.7077745 80.9720843,67.9319272 Z M96.3531371,65.6118801 C96.3531371,64.4088867 96.0237509,63.4350495 95.3649689,62.6903393 C94.7061868,61.9456292 93.6464228,61.5732796 92.1856451,61.5732796 C91.0399371,61.5732796 90.0231365,61.9026658 89.1352129,62.5614478 C88.2472892,63.2202299 87.6601226,64.2370305 87.3736956,65.6118801 L96.3531371,65.6118801 Z" id="duce" transform="translate(52.407737, 63.785917) rotate(17.000000) translate(-52.407737, -63.785917) "></path>
                                <path d="M121.318841,93.3207331 L113.757206,93.3207331 L113.757206,88.8524943 L121.318841,88.8524943 L121.318841,80.9471488 L125.958935,80.9471488 L125.958935,88.8524943 L133.52057,88.8524943 L133.52057,93.3207331 L125.958935,93.3207331 L125.958935,101.226079 L121.318841,101.226079 L121.318841,93.3207331 Z M139.717282,83.8686895 L159.480646,83.8686895 L159.480646,88.3369283 L139.717282,88.3369283 L139.717282,83.8686895 Z M139.717282,93.7933353 L159.480646,93.7933353 L159.480646,98.2615741 L139.717282,98.2615741 L139.717282,93.7933353 Z" id="+=" transform="translate(136.618926, 91.086614) rotate(17.000000) translate(-136.618926, -91.086614) "></path>
                                <path d="M129.465476,305.462256 C128.061984,304.918045 126.572586,304.645943 124.997237,304.645943 C123.622388,304.645943 122.612748,304.946687 121.968287,305.548184 C121.323826,306.14968 121.001601,307.094875 121.001601,308.383797 L121.001601,308.98529 L128.348416,308.98529 L128.348416,313.926131 L121.001601,313.926131 L121.001601,330.295352 L114.685917,330.295352 L114.685917,313.926131 L109.057655,313.926131 L109.057655,309.243073 L114.685917,308.98529 L114.685917,308.426761 C114.685917,307.195124 114.872092,306.049434 115.244447,304.989654 C115.616802,303.929874 116.189647,303.006161 116.963,302.218486 C117.736353,301.430812 118.724511,300.807843 119.927505,300.34956 C121.130498,299.891276 122.562612,299.662138 124.223888,299.662138 C125.455524,299.662138 126.608376,299.776707 127.682477,300.005849 C128.756578,300.234991 129.751897,300.507092 130.668463,300.822162 L129.465476,305.462256 Z M134.888839,308.98529 L149.754326,308.98529 L149.754326,330.295352 L143.438642,330.295352 L143.438642,313.926131 L134.888839,313.926131 L134.888839,308.98529 Z M146.317219,305.84893 C145.085583,305.84893 144.075943,305.505223 143.288269,304.817798 C142.500594,304.130374 142.106763,303.1995 142.106763,302.025149 C142.106763,300.850798 142.500594,299.898443 143.288269,299.168054 C144.075943,298.437665 145.085583,298.072476 146.317219,298.072476 C147.548855,298.072476 148.558495,298.437665 149.346169,299.168054 C150.133843,299.898443 150.527675,300.850798 150.527675,302.025149 C150.527675,303.1995 150.133843,304.130374 149.346169,304.817798 C148.558495,305.505223 147.548855,305.84893 146.317219,305.84893 Z M160.118529,300.177704 L172.621005,300.177704 L172.621005,322.218151 C172.621005,322.876933 172.714093,323.428297 172.90027,323.872259 C173.086448,324.316221 173.344228,324.674249 173.673619,324.946355 C174.00301,325.218461 174.37536,325.411796 174.790679,325.526367 C175.205998,325.640937 175.628471,325.698222 176.058112,325.698222 C176.545038,325.698222 177.060599,325.648098 177.60481,325.547849 C178.149021,325.447599 178.750509,325.268585 179.409291,325.010801 L180.827098,329.650895 C180.254244,329.822751 179.724362,329.980283 179.237436,330.123497 C178.75051,330.26671 178.263591,330.38844 177.776665,330.48869 C177.289739,330.588939 176.774179,330.667705 176.229967,330.724991 C175.685756,330.782276 175.084268,330.810918 174.425486,330.810918 C171.733072,330.810918 169.706632,330.016095 168.346104,328.426425 C166.985575,326.836756 166.305322,324.681425 166.305322,321.960368 L166.305322,305.161509 L160.118529,305.161509 L160.118529,300.177704 Z M190.890554,313.926131 L185.520075,313.926131 L185.520075,309.243073 L191.191301,308.98529 L192.007614,303.314064 L197.206238,303.314064 L197.206238,308.98529 L206.228643,308.98529 L206.228643,313.926131 L197.206238,313.926131 L197.206238,321.401839 C197.206238,323.034472 197.564267,324.187324 198.280334,324.860427 C198.996401,325.533531 200.127771,325.870077 201.674477,325.870077 C202.505115,325.870077 203.264135,325.798472 203.95156,325.655258 C204.638985,325.512045 205.297757,325.32587 205.927897,325.096728 L207.044956,329.650895 C206.099747,329.937322 205.047144,330.202263 203.887114,330.445726 C202.727085,330.689189 201.459665,330.810918 200.084815,330.810918 C198.394896,330.810918 196.962782,330.58178 195.788432,330.123497 C194.614081,329.665214 193.661725,329.027923 192.931337,328.211606 C192.200948,327.395289 191.678226,326.414292 191.363157,325.268584 C191.048087,324.122876 190.890554,322.848295 190.890554,321.444802 L190.890554,313.926131 Z M211.737934,319.640321 C211.737934,317.893117 212.045838,316.332113 212.661656,314.957263 C213.277474,313.582414 214.10094,312.415241 215.132077,311.455711 C216.163214,310.49618 217.344708,309.758642 218.676593,309.243073 C220.008479,308.727505 221.390468,308.469724 222.822603,308.469724 C224.455237,308.469724 225.901672,308.727505 227.16195,309.243073 C228.422229,309.758642 229.467672,310.474699 230.29831,311.391265 C231.128949,312.307831 231.759079,313.389077 232.188719,314.635035 C232.61836,315.880992 232.833177,317.234339 232.833177,318.695117 C232.833177,319.267971 232.804534,319.812174 232.747249,320.327743 C232.689963,320.843311 232.632679,321.229982 232.575394,321.487766 L218.225473,321.487766 C218.454614,323.091757 219.149189,324.244609 220.309219,324.946355 C221.469248,325.648101 222.836917,325.998969 224.412265,325.998969 C225.386117,325.998969 226.30983,325.877239 227.183432,325.633776 C228.057035,325.390313 228.966427,325.025124 229.911636,324.538198 L231.9739,328.319016 C230.770906,329.092369 229.42472,329.701017 227.935299,330.144979 C226.445879,330.588941 224.985123,330.810918 223.552988,330.810918 C221.891712,330.810918 220.345029,330.560298 218.912894,330.059051 C217.480759,329.557804 216.23482,328.827426 215.175041,327.867896 C214.115261,326.908365 213.277474,325.741193 212.661656,324.366343 C212.045838,322.991494 211.737934,321.416169 211.737934,319.640321 Z M227.118987,317.320274 C227.118987,316.117281 226.7896,315.143444 226.130818,314.398733 C225.472036,313.654023 224.412272,313.281674 222.951495,313.281674 C221.805787,313.281674 220.788986,313.61106 219.901062,314.269842 C219.013139,314.928624 218.425972,315.945425 218.139545,317.320274 L227.118987,317.320274 Z M240.318803,308.98529 L245.474464,308.98529 L245.99003,313.625384 L246.118921,313.625384 C247.178701,311.87818 248.453282,310.582117 249.942702,309.737157 C251.432123,308.892198 253.03609,308.469724 254.754652,308.469724 C255.699861,308.469724 256.466042,308.54133 257.053217,308.684544 C257.640392,308.827757 258.24904,309.042574 258.87918,309.329001 L257.590265,314.613553 C256.931483,314.413054 256.337156,314.262682 255.807266,314.162432 C255.277376,314.062183 254.611443,314.012059 253.809447,314.012059 C252.491883,314.012059 251.195821,314.39873 249.92122,315.172083 C248.64662,315.945435 247.551053,317.291622 246.634487,319.210683 L246.634487,330.295352 L240.318803,330.295352 L240.318803,308.98529 Z" id="filter" transform="translate(183.968417, 314.441697) rotate(17.000000) translate(-183.968417, -314.441697) "></path>
                                <polygon id="*" transform="translate(93.787625, 214.424518) rotate(17.000000) translate(-93.787625, -214.424518) " points="86.0541348 222.73802 90.2216267 215.992698 83.64816 213.071157 84.6363282 210.020725 91.5964694 211.86817 92.1120354 204.220607 95.4632145 204.220607 95.9787805 211.86817 102.938922 210.020725 103.92709 213.071157 97.3536232 215.992698 101.521115 222.73802 98.7714298 224.628429 93.787625 218.527564 88.8038202 224.628429"></polygon>
                                <path d="M97.8874664,17.2278151 L117.65083,17.2278151 L117.65083,21.6960538 L97.8874664,21.6960538 L97.8874664,17.2278151 Z M141.63457,21.5671623 L125.050529,32.308121 L125.050529,26.593931 L136.435946,19.4619345 L136.435946,19.2900791 L125.050529,12.1580826 L125.050529,6.4438926 L141.63457,17.1848512 L141.63457,21.5671623 Z" id="-&gt;" transform="translate(119.761018, 19.376007) rotate(17.000000) translate(-119.761018, -19.376007) "></path>
                            </g>
                        </g>
                    </g>
                    <g id="Sparkles-Outlined" stroke-width="1" transform="translate(259.000000, 24.000000)" fill="#FFD400">
                        <polygon id="Star" points="14 205 5.77100647 209.326238 7.34260439 200.163119 0.685208772 193.673762 9.88550323 192.336881 14 184 18.1144968 192.336881 27.3147912 193.673762 20.6573956 200.163119 22.2289935 209.326238"></polygon>
                        <polygon id="Star-Copy" points="134 15 128.122147 18.0901699 129.244717 11.545085 124.489435 6.90983006 131.061074 5.95491503 134 0 136.938926 5.95491503 143.510565 6.90983006 138.755283 11.545085 139.877853 18.0901699"></polygon>
                        <polygon id="Star-Copy-2" points="239 56 233.122147 59.0901699 234.244717 52.545085 229.489435 47.9098301 236.061074 46.954915 239 41 241.938926 46.954915 248.510565 47.9098301 243.755283 52.545085 244.877853 59.0901699"></polygon>
                        <path d="M250.7825,127.2045 L269.0675,127.2045 L269.0675,131.3385 L250.7825,131.3385 L250.7825,127.2045 Z M250.7825,136.38675 L269.0675,136.38675 L269.0675,140.52075 L250.7825,140.52075 L250.7825,136.38675 Z M274.672803,127.2045 L292.957803,127.2045 L292.957803,131.3385 L274.672803,131.3385 L274.672803,127.2045 Z M274.672803,136.38675 L292.957803,136.38675 L292.957803,140.52075 L274.672803,140.52075 L274.672803,136.38675 Z" id="=="></path>
                        <path d="M46.8700197,70.07375 L59.8975197,61.63625 L59.8975197,66.125 L50.9537697,71.7275 L50.9537697,71.8625 L59.8975197,77.465 L59.8975197,81.95375 L46.8700197,73.51625 L46.8700197,70.07375 Z M70.8667393,65.18 L64.2854893,65.18 L64.2854893,60.995 L82.4429893,60.995 L82.4429893,65.18 L75.8617393,65.18 L75.8617393,83 L70.8667393,83 L70.8667393,65.18 Z M99.858459,73.51625 L86.830959,81.95375 L86.830959,77.465 L95.774709,71.8625 L95.774709,71.7275 L86.830959,66.125 L86.830959,61.63625 L99.858459,70.07375 L99.858459,73.51625 Z" id="&lt;T&gt;"></path>
                        <path d="M280.31252,214.39375 C280.177519,213.651246 280.205644,212.981878 280.396895,212.385625 C280.588146,211.789372 280.852518,211.255002 281.19002,210.7825 C281.527521,210.309998 281.915642,209.882502 282.354395,209.5 C282.793147,209.117498 283.203768,208.746252 283.58627,208.38625 C283.968772,208.026248 284.295018,207.666252 284.56502,207.30625 C284.835021,206.946248 284.97002,206.552502 284.97002,206.125 C284.97002,205.404996 284.733772,204.870627 284.26127,204.521875 C283.788767,204.173123 283.192523,203.99875 282.47252,203.99875 C281.775016,203.99875 281.156272,204.144999 280.61627,204.4375 C280.076267,204.730001 279.547522,205.101248 279.03002,205.55125 L276.26252,203.02 C277.072524,202.119995 278.028764,201.388753 279.13127,200.82625 C280.233775,200.263747 281.460013,199.9825 282.81002,199.9825 C283.777525,199.9825 284.68314,200.094999 285.526895,200.32 C286.370649,200.545001 287.101892,200.888123 287.720645,201.349375 C288.339398,201.810627 288.828768,202.384372 289.18877,203.070625 C289.548771,203.756878 289.72877,204.561245 289.72877,205.48375 C289.72877,206.226254 289.593771,206.867497 289.32377,207.4075 C289.053768,207.947503 288.716272,208.442498 288.31127,208.8925 C287.906268,209.342502 287.478772,209.758748 287.02877,210.14125 C286.578767,210.523752 286.162522,210.923123 285.78002,211.339375 C285.397518,211.755627 285.093771,212.205623 284.86877,212.689375 C284.643769,213.173127 284.565019,213.741247 284.63252,214.39375 L280.31252,214.39375 Z M279.23252,219.9625 C279.23252,218.949995 279.553141,218.134378 280.194395,217.515625 C280.835648,216.896872 281.640015,216.5875 282.60752,216.5875 C283.575025,216.5875 284.379391,216.896872 285.020645,217.515625 C285.661898,218.134378 285.98252,218.949995 285.98252,219.9625 C285.98252,220.975005 285.661898,221.801872 285.020645,222.443125 C284.379391,223.084378 283.575025,223.405 282.60752,223.405 C281.640015,223.405 280.835648,223.084378 280.194395,222.443125 C279.553141,221.801872 279.23252,220.975005 279.23252,219.9625 Z" id="?"></path>
                        <circle id="Oval-2" cx="289.5" cy="85.5" r="8.5"></circle>
                        <circle id="Oval-2-Copy" cx="79.5" cy="135.5" r="6.5"></circle>
                    </g>
                </g>
                <g id="text-Outlined" transform="translate(862.000000, 179.000000)" fill="#2188A9">
                    <path d="M41.779,2.705 C61.0590009,2.705 76.7239991,8.1275 88.774,18.9725 C100.824001,29.8175 106.849,44.1569991 106.849,61.991 C106.849,79.5839991 100.793875,93.98375 88.683625,105.19025 C76.573375,116.39675 60.9385,122 41.779,122 L2.737,122 L2.737,2.705 L41.779,2.705 Z M41.59825,24.7565 L27.13825,24.7565 L27.13825,99.9485 L41.59825,99.9485 C53.6482509,99.9485 63.3484991,96.4841241 70.699,89.555375 C78.0495009,82.6266259 81.72475,73.4384991 81.72475,61.991 C81.72475,50.423 78.0796241,41.3252509 70.789375,34.69775 C63.4991259,28.0702491 53.7687491,24.7565 41.59825,24.7565 Z M162.559712,30.5405 C174.248213,30.5405 183.556838,33.8241259 190.485587,40.391375 C197.414336,46.9586241 200.878712,56.4479991 200.878712,68.8595 L200.878712,122 L178.465712,122 L178.465712,113.324 C171.597212,120.554 162.499463,124.169 151.172462,124.169 C141.652961,124.169 134.121713,121.668626 128.578712,116.667875 C123.035711,111.667124 120.264212,105.250499 120.264212,97.418 C120.264212,89.3444991 123.306836,82.9881259 129.392087,78.348875 C135.477338,73.7096241 143.701463,71.39 154.064462,71.39 L176.477462,71.39 L176.477462,67.4135 C176.477462,62.4730009 175.061588,58.6169991 172.229837,55.8455 C169.398086,53.0740009 165.270962,51.68825 159.848462,51.68825 C151.895462,51.68825 144.002711,55.7852509 136.170212,63.97925 L123.517712,48.977 C133.880711,36.686 146.894711,30.5405 162.559712,30.5405 Z M157.679462,106.27475 C162.981461,106.27475 167.439962,104.617874 171.054962,101.304125 C174.669962,97.9903759 176.477462,93.7427509 176.477462,88.56125 L176.477462,87.47675 L157.317962,87.47675 C149.003462,87.47675 144.846212,90.4892509 144.846212,96.51425 C144.846212,99.5267509 146.021087,101.906624 148.370837,103.653875 C150.720587,105.401126 153.823463,106.27475 157.679462,106.27475 Z M270.326425,102.29825 C264.542425,102.29825 260.324926,101.243876 257.673925,99.135125 C255.022924,97.0263741 253.697425,93.4415 253.697425,88.3805 L253.697425,53.13425 L279.002425,53.13425 L279.002425,32.52875 L253.697425,32.52875 L253.697425,9.935 L229.296175,9.935 L229.296175,32.52875 L215.197675,32.52875 L215.197675,53.13425 L229.296175,53.13425 L229.296175,90.5495 C229.296175,101.756 232.429174,110.160875 238.695175,115.764125 C244.961176,121.367375 253.757674,124.169 265.084675,124.169 C270.507175,124.169 276.110425,123.446 281.894425,122 L281.894425,101.57525 C275.628424,102.057251 271.772425,102.29825 270.326425,102.29825 Z M336.339887,30.5405 C348.028388,30.5405 357.337013,33.8241259 364.265762,40.391375 C371.194511,46.9586241 374.658887,56.4479991 374.658887,68.8595 L374.658887,122 L352.245887,122 L352.245887,113.324 C345.377387,120.554 336.279638,124.169 324.952637,124.169 C315.433136,124.169 307.901888,121.668626 302.358887,116.667875 C296.815886,111.667124 294.044387,105.250499 294.044387,97.418 C294.044387,89.3444991 297.087011,82.9881259 303.172262,78.348875 C309.257513,73.7096241 317.481638,71.39 327.844637,71.39 L350.257637,71.39 L350.257637,67.4135 C350.257637,62.4730009 348.841763,58.6169991 346.010012,55.8455 C343.178261,53.0740009 339.051137,51.68825 333.628637,51.68825 C325.675637,51.68825 317.782886,55.7852509 309.950387,63.97925 L297.297887,48.977 C307.660886,36.686 320.674886,30.5405 336.339887,30.5405 Z M331.459637,106.27475 C336.761636,106.27475 341.220137,104.617874 344.835137,101.304125 C348.450137,97.9903759 350.257637,93.7427509 350.257637,88.56125 L350.257637,87.47675 L331.098137,87.47675 C322.783637,87.47675 318.626387,90.4892509 318.626387,96.51425 C318.626387,99.5267509 319.801262,101.906624 322.151012,103.653875 C324.500762,105.401126 327.603638,106.27475 331.459637,106.27475 Z M437.238099,0.536 C425.7906,0.536 416.331348,3.63887592 408.860349,9.844625 C401.38935,16.0503741 397.653849,24.21425 397.653849,34.33625 C397.653849,42.1687491 400.154223,48.79625 405.154974,54.21875 C410.155725,59.64125 417.29535,64.4612509 426.573849,68.67875 L439.407099,74.46275 C443.263098,76.27025 446.064723,77.6560009 447.811974,78.62 C449.559225,79.5839991 451.125723,80.9998759 452.511474,82.867625 C453.897225,84.7353741 454.590099,86.8742509 454.590099,89.28425 C454.590099,93.3812509 453.08385,96.604625 450.071349,98.954375 C447.058848,101.304125 442.901598,102.479 437.599599,102.479 C426.393099,102.479 416.632599,96.695 408.318099,85.127 L391.508349,97.7795 C396.087348,105.853001 402.383475,112.269626 410.396724,117.029375 C418.409973,121.789124 427.477599,124.169 437.599599,124.169 C449.770098,124.169 459.7716,120.9155 467.604099,114.4085 C475.436598,107.9015 479.352849,99.2255 479.352849,88.3805 C479.352849,80.3069991 476.94285,73.5891259 472.122849,68.226875 C467.302848,62.8646241 459.892098,57.9542509 449.890599,53.49575 L436.334349,47.531 C431.273349,45.2414991 427.688475,43.1628741 425.579724,41.295125 C423.470973,39.4273759 422.416599,36.9269991 422.416599,33.794 C422.416599,30.0584991 423.832473,27.196625 426.664224,25.208375 C429.495975,23.220125 433.0206,22.226 437.238099,22.226 C446.275599,22.226 453.867099,26.8049991 460.012599,35.963 L476.641599,23.12975 C472.906098,16.26125 467.694474,10.7785009 461.006724,6.6815 C454.318974,2.58449908 446.3961,0.536 437.238099,0.536 Z M542.112812,30.5405 C555.367811,30.5405 566.694812,35.0291241 576.093812,44.006375 C585.492812,52.9836259 590.192312,64.0394991 590.192312,77.174 C590.192312,90.3085009 585.492812,101.3945 576.093812,110.432 C566.694812,119.4695 555.307562,123.98825 541.932062,123.98825 C528.556562,123.98825 517.259687,119.499626 508.041437,110.522375 C498.823187,101.545124 494.214062,90.4289991 494.214062,77.174 C494.214062,64.0394991 498.853313,52.9836259 508.131812,44.006375 C517.410311,35.0291241 528.737312,30.5405 542.112812,30.5405 Z M542.112812,52.77275 C535.364813,52.77275 529.821812,55.0923741 525.483812,59.731625 C521.145812,64.3708759 518.976812,70.2452509 518.976812,77.35475 C518.976812,84.4642491 521.145812,90.278375 525.483812,94.797125 C529.821812,99.315875 535.364813,101.57525 542.112812,101.57525 C548.740313,101.57525 554.253188,99.2857491 558.651437,94.70675 C563.049686,90.1277509 565.248812,84.3437509 565.248812,77.35475 C565.248812,70.3657491 563.049686,64.5215 558.651437,59.822 C554.253188,55.1225 548.740313,52.77275 542.112812,52.77275 Z M690.729024,32.52875 L666.327774,32.52875 L666.327774,84.58475 C666.327774,89.7662509 664.73115,93.9235009 661.537899,97.0565 C658.344648,100.189499 654.398274,101.756 649.698774,101.756 C644.758275,101.756 640.6914,100.189499 637.498149,97.0565 C634.304898,93.9235009 632.708274,89.7662509 632.708274,84.58475 L632.708274,32.52875 L608.307024,32.52875 L608.307024,82.5965 C608.307024,95.1284991 612.193149,105.19025 619.965399,112.78175 C627.737649,120.37325 637.648773,124.169 649.698774,124.169 C661.507773,124.169 671.298399,120.343124 679.070649,112.691375 C686.842899,105.039626 690.729024,95.0080009 690.729024,82.5965 L690.729024,32.52875 Z M761.080486,31.44425 C750.837985,31.44425 742.643986,35.42075 736.498486,43.37375 L736.498486,32.52875 L714.085486,32.52875 L714.085486,122 L738.486736,122 L738.486736,77.35475 C738.486736,69.6427491 740.655736,63.8286259 744.993736,59.912375 C749.331736,55.9961241 755.175985,54.038 762.526486,54.038 L769.033486,54.038 L769.033486,32.52875 C766.743985,31.80575 764.092987,31.44425 761.080486,31.44425 Z M825.286449,30.5405 C811.910949,30.5405 800.583948,35.0291241 791.305449,44.006375 C782.02695,52.9836259 777.387699,64.0394991 777.387699,77.174 C777.387699,90.4289991 782.02695,101.57525 791.305449,110.61275 C800.583948,119.65025 811.910949,124.169 825.286449,124.169 C833.962449,124.169 841.644324,122.18075 848.332074,118.20425 C855.019824,114.22775 860.2917,108.80525 864.147699,101.93675 L847.157199,88.92275 C841.1322,97.4782491 833.962449,101.756 825.647949,101.756 C818.779449,101.756 813.146073,99.4363759 808.747824,94.797125 C804.349575,90.1578741 802.150449,84.2834991 802.150449,77.174 C802.150449,70.1849991 804.349575,64.3708759 808.747824,59.731625 C813.146073,55.0923741 818.779449,52.77275 825.647949,52.77275 C834.203448,52.77275 841.373199,57.11075 847.157199,65.78675 L864.147699,52.592 C860.2917,45.7235 855.04995,40.3311259 848.422449,36.414875 C841.794948,32.4986241 834.08295,30.5405 825.286449,30.5405 Z M964.322911,72.113 C964.322911,76.451 963.780661,80.9095009 962.696161,85.4885 L899.795161,85.4885 C901.361662,91.1519991 904.344037,95.520125 908.742286,98.592875 C913.140535,101.665625 918.593161,103.202 925.100161,103.202 C933.896662,103.202 942.211162,100.189499 950.043661,94.1645 L960.165661,110.7935 C949.56166,119.710499 937.63216,124.169 924.377161,124.169 C910.278661,124.169 898.59016,119.680376 889.311661,110.703125 C880.033162,101.725874 875.393911,90.6097491 875.393911,77.35475 C875.393911,64.2202491 879.882535,53.13425 888.859786,44.09675 C897.837037,35.05925 908.953162,30.5405 922.208161,30.5405 C934.619662,30.5405 944.741662,34.517 952.574161,42.47 C960.40666,50.423 964.322911,60.3040009 964.322911,72.113 Z M921.304411,50.24225 C916.12291,50.24225 911.60416,51.869 907.748161,55.1225 C903.892162,58.376 901.241161,62.7742491 899.795161,68.31725 L940.644661,68.31725 C940.52416,62.7742491 938.596162,58.376 934.860661,55.1225 C931.12516,51.869 926.60641,50.24225 921.304411,50.24225 Z M1030.33637,31.44425 C1020.09387,31.44425 1011.89987,35.42075 1005.75437,43.37375 L1005.75437,32.52875 L983.341373,32.52875 L983.341373,122 L1007.74262,122 L1007.74262,77.35475 C1007.74262,69.6427491 1009.91162,63.8286259 1014.24962,59.912375 C1018.58762,55.9961241 1024.43187,54.038 1031.78237,54.038 L1038.28937,54.038 L1038.28937,32.52875 C1035.99987,31.80575 1033.34887,31.44425 1030.33637,31.44425 Z M1135.57259,72.113 C1135.57259,76.451 1135.03034,80.9095009 1133.94584,85.4885 L1071.04484,85.4885 C1072.61134,91.1519991 1075.59371,95.520125 1079.99196,98.592875 C1084.39021,101.665625 1089.84284,103.202 1096.34984,103.202 C1105.14634,103.202 1113.46084,100.189499 1121.29334,94.1645 L1131.41534,110.7935 C1120.81133,119.710499 1108.88183,124.169 1095.62684,124.169 C1081.52834,124.169 1069.83983,119.680376 1060.56134,110.703125 C1051.28284,101.725874 1046.64359,90.6097491 1046.64359,77.35475 C1046.64359,64.2202491 1051.13221,53.13425 1060.10946,44.09675 C1069.08671,35.05925 1080.20284,30.5405 1093.45784,30.5405 C1105.86934,30.5405 1115.99134,34.517 1123.82384,42.47 C1131.65633,50.423 1135.57259,60.3040009 1135.57259,72.113 Z M1092.55409,50.24225 C1087.37258,50.24225 1082.85383,51.869 1078.99784,55.1225 C1075.14184,58.376 1072.49084,62.7742491 1071.04484,68.31725 L1111.89434,68.31725 C1111.77383,62.7742491 1109.84584,58.376 1106.11034,55.1225 C1102.37483,51.869 1097.85608,50.24225 1092.55409,50.24225 Z M1201.58605,31.44425 C1191.34355,31.44425 1183.14955,35.42075 1177.00405,43.37375 L1177.00405,32.52875 L1154.59105,32.52875 L1154.59105,122 L1178.9923,122 L1178.9923,77.35475 C1178.9923,69.6427491 1181.1613,63.8286259 1185.4993,59.912375 C1189.8373,55.9961241 1195.68155,54.038 1203.03205,54.038 L1209.53905,54.038 L1209.53905,32.52875 C1207.24955,31.80575 1204.59855,31.44425 1201.58605,31.44425 Z" id="DataSourcerer"></path>
                    <path d="M17.5285,190.53325 C13.465833,190.53325 10.0495,191.675875 7.2795,193.961125 C4.5095,196.246375 3.1245,199.235667 3.1245,202.929 C3.1245,205.883667 4.059375,208.353583 5.929125,210.33875 C7.798875,212.323917 10.418833,214.07825 13.789,215.60175 L18.84425,217.95625 C21.244917,219.06425 22.964625,220.079917 24.003375,221.00325 C25.042125,221.926583 25.5615,223.196167 25.5615,224.812 C25.5615,226.751 24.834375,228.297583 23.380125,229.45175 C21.925875,230.605917 20.0215,231.183 17.667,231.183 C13.050333,231.183 9.05691702,228.75925 5.68675,223.91175 L0.493,227.859 C2.24733298,230.952167 4.62491702,233.375917 7.62575,235.13025 C10.626583,236.884583 13.99675,237.76175 17.73625,237.76175 C22.16825,237.76175 25.826958,236.549875 28.712375,234.126125 C31.597792,231.702375 33.0405,228.505333 33.0405,224.535 C33.0405,221.534167 32.14025,219.041167 30.33975,217.056 C28.53925,215.070833 25.792333,213.224167 22.099,211.516 L16.9745,209.1615 C14.666167,208.0535 13.02725,207.084 12.05775,206.253 C11.08825,205.422 10.6035,204.221667 10.6035,202.652 C10.6035,200.8515 11.272917,199.478042 12.61175,198.531625 C13.950583,197.585208 15.5895,197.112 17.5285,197.112 C21.498833,197.112 24.707417,198.958667 27.15425,202.652 L32.27875,198.70475 C30.847583,196.257917 28.839333,194.284292 26.254,192.783875 C23.668667,191.283458 20.760167,190.53325 17.5285,190.53325 Z M73.1810251,217.81775 C73.1810251,219.248917 72.9963581,220.772417 72.6270251,222.38825 L47.2815251,222.38825 C47.7431921,225.204417 48.9666081,227.397333 50.9517751,228.967 C52.9369421,230.536667 55.4068581,231.3215 58.3615251,231.3215 C61.9163581,231.3215 65.2172751,229.982667 68.2642751,227.305 L71.7267751,232.291 C67.8487751,235.938167 63.3244421,237.76175 58.1537751,237.76175 C52.8907751,237.76175 48.5280251,236.065125 45.0655251,232.671875 C41.6030251,229.278625 39.8717751,225.065917 39.8717751,220.03375 C39.8717751,215.04775 41.5684001,210.835042 44.9616501,207.395625 C48.3549001,203.956208 52.5214421,202.2365 57.4612751,202.2365 C61.9856081,202.2365 65.7366501,203.713833 68.7144001,206.6685 C71.6921501,209.623167 73.1810251,213.339583 73.1810251,217.81775 Z M57.1842751,208.39975 C54.7836081,208.39975 52.6945671,209.149958 50.9171501,210.650375 C49.1397331,212.150792 47.9740251,214.170583 47.4200251,216.70975 L65.9097751,216.70975 C65.8636081,214.170583 65.0095251,212.150792 63.3475251,210.650375 C61.6855251,209.149958 59.6311081,208.39975 57.1842751,208.39975 Z M98.5020502,202.2365 C94.2547172,202.2365 90.8614672,203.6215 88.3223002,206.3915 L88.3223002,202.99825 L81.5358002,202.99825 L81.5358002,237 L88.8070502,237 L88.8070502,216.70975 C88.8070502,214.401417 89.5341752,212.508583 90.9884252,211.03125 C92.4426752,209.553917 94.3008831,208.81525 96.5630502,208.81525 C98.7790502,208.81525 100.568008,209.542375 101.929925,210.996625 C103.291842,212.450875 103.9728,214.35525 103.9728,216.70975 L103.9728,237 L111.24405,237 L111.24405,215.74025 C111.24405,211.677583 110.112967,208.411292 107.8508,205.941375 C105.588633,203.471458 102.472383,202.2365 98.5020502,202.2365 Z M147.229575,185.0625 L154.570075,185.0625 L154.570075,237 L147.783575,237 L147.783575,232.1525 C145.152075,235.892 141.181742,237.76175 135.872575,237.76175 C131.071242,237.76175 127.100908,236.076667 123.961575,232.7065 C120.822242,229.336333 119.252575,225.112083 119.252575,220.03375 C119.252575,214.955417 120.822242,210.719625 123.961575,207.326375 C127.100908,203.933125 131.071242,202.2365 135.872575,202.2365 C140.766242,202.2365 144.551908,203.875417 147.229575,207.15325 L147.229575,185.0625 Z M137.119075,231.11375 C139.935242,231.11375 142.34745,230.178875 144.3557,228.309125 C146.36395,226.439375 147.368075,223.680917 147.368075,220.03375 C147.368075,216.43275 146.352408,213.674292 144.321075,211.758375 C142.289742,209.842458 139.889075,208.8845 137.119075,208.8845 C134.118242,208.8845 131.625242,209.92325 129.640075,212.00075 C127.654908,214.07825 126.662325,216.732833 126.662325,219.9645 C126.662325,223.242333 127.654908,225.92 129.640075,227.9975 C131.625242,230.075 134.118242,231.11375 137.119075,231.11375 Z M168.8111,185.478 C167.4261,185.478 166.24885,185.951208 165.27935,186.897625 C164.30985,187.844042 163.8251,188.986667 163.8251,190.3255 C163.8251,191.664333 164.30985,192.795417 165.27935,193.71875 C166.24885,194.642083 167.4261,195.10375 168.8111,195.10375 C170.149933,195.10375 171.3041,194.642083 172.2736,193.71875 C173.2431,192.795417 173.72785,191.664333 173.72785,190.3255 C173.72785,188.986667 173.2431,187.844042 172.2736,186.897625 C171.3041,185.951208 170.149933,185.478 168.8111,185.478 Z M172.4121,202.99825 L165.14085,202.99825 L165.14085,237 L172.4121,237 L172.4121,202.99825 Z M199.949125,202.2365 C195.701792,202.2365 192.308542,203.6215 189.769375,206.3915 L189.769375,202.99825 L182.982875,202.99825 L182.982875,237 L190.254125,237 L190.254125,216.70975 C190.254125,214.401417 190.98125,212.508583 192.4355,211.03125 C193.88975,209.553917 195.747958,208.81525 198.010125,208.81525 C200.226125,208.81525 202.015083,209.542375 203.377,210.996625 C204.738917,212.450875 205.419875,214.35525 205.419875,216.70975 L205.419875,237 L212.691125,237 L212.691125,215.74025 C212.691125,211.677583 211.560042,208.411292 209.297875,205.941375 C207.035708,203.471458 203.919458,202.2365 199.949125,202.2365 Z M249.507651,202.99825 L256.224901,202.99825 L256.224901,233.46825 C256.224901,238.823583 254.678318,242.9555 251.585151,245.864 C248.491983,248.7725 244.360068,250.22675 239.189401,250.22675 C232.864568,250.22675 227.416901,248.08 222.846401,243.7865 L226.862901,238.73125 C230.833233,241.962917 234.803568,243.57875 238.773901,243.57875 C241.867068,243.57875 244.336983,242.759292 246.183651,241.120375 C248.030318,239.481458 248.953651,237.06925 248.953651,233.88375 L248.953651,231.52925 C246.183651,234.71475 242.351818,236.3075 237.458151,236.3075 C232.702983,236.3075 228.755733,234.71475 225.616401,231.52925 C222.477068,228.34375 220.907401,224.258 220.907401,219.272 C220.907401,214.286 222.477068,210.20025 225.616401,207.01475 C228.755733,203.82925 232.702983,202.2365 237.458151,202.2365 C242.767318,202.2365 246.783818,204.10625 249.507651,207.84575 L249.507651,202.99825 Z M238.773901,229.9365 C241.590068,229.9365 244.002276,229.013167 246.010526,227.1665 C248.018776,225.319833 249.022901,222.66525 249.022901,219.20275 C249.022901,215.74025 248.018776,213.131833 246.010526,211.3775 C244.002276,209.623167 241.590068,208.746 238.773901,208.746 C235.819233,208.746 233.349318,209.7155 231.364151,211.6545 C229.378983,213.5935 228.386401,216.132667 228.386401,219.272 C228.386401,222.4575 229.378983,225.031292 231.364151,226.993375 C233.349318,228.955458 235.819233,229.9365 238.773901,229.9365 Z M301.049951,191.295 C308.575118,191.295 314.599868,193.395583 319.124201,197.59675 C323.648534,201.797917 325.910701,207.29175 325.910701,214.07825 C325.910701,220.818583 323.636993,226.323958 319.089576,230.594375 C314.542159,234.864792 308.528951,237 301.049951,237 L286.715201,237 L286.715201,191.295 L301.049951,191.295 Z M300.980701,197.943 L294.055701,197.943 L294.055701,230.42125 L300.980701,230.42125 C306.289868,230.42125 310.514118,228.89775 313.653451,225.85075 C316.792784,222.80375 318.362451,218.879583 318.362451,214.07825 C318.362451,209.184583 316.804326,205.271958 313.688076,202.340375 C310.571826,199.408792 306.336034,197.943 300.980701,197.943 Z M347.284476,202.2365 C351.485643,202.2365 354.855809,203.459917 357.394976,205.90675 C359.934143,208.353583 361.203726,211.86225 361.203726,216.43275 L361.203726,237 L354.417226,237 L354.417226,233.19125 C351.878059,236.23825 348.253976,237.76175 343.544976,237.76175 C339.990143,237.76175 337.127809,236.8615 334.957976,235.061 C332.788143,233.2605 331.703226,230.882917 331.703226,227.92825 C331.703226,224.973583 332.834309,222.619083 335.096476,220.86475 C337.358643,219.110417 340.405643,218.23325 344.237476,218.23325 L353.863226,218.23325 L353.863226,216.01725 C353.863226,213.66275 353.228434,211.86225 351.958851,210.61575 C350.689268,209.36925 348.900309,208.746 346.591976,208.746 C343.175643,208.746 340.036309,210.431083 337.173976,213.80125 L332.949726,209.50775 C336.366059,204.66025 341.144309,202.2365 347.284476,202.2365 Z M345.068476,232.1525 C347.515309,232.1525 349.592809,231.39075 351.300976,229.86725 C353.009143,228.34375 353.863226,226.427833 353.863226,224.1195 L353.863226,223.49625 L345.137726,223.49625 C341.121226,223.49625 339.112976,224.88125 339.112976,227.65125 C339.112976,229.082417 339.666976,230.190417 340.774976,230.97525 C341.882976,231.760083 343.314143,232.1525 345.068476,232.1525 Z M387.078751,231.183 C384.862751,231.183 383.189209,230.744417 382.058126,229.86725 C380.927043,228.990083 380.361501,227.466583 380.361501,225.29675 L380.361501,209.3 L390.472001,209.3 L390.472001,202.99825 L380.361501,202.99825 L380.361501,194.065 L373.021001,194.065 L373.021001,202.99825 L367.481001,202.99825 L367.481001,209.3 L373.021001,209.3 L373.021001,225.92 C373.021001,229.890333 374.129001,232.856542 376.345001,234.818625 C378.561001,236.780708 381.631084,237.76175 385.555251,237.76175 C387.263418,237.76175 389.271668,237.507833 391.580001,237 L391.580001,230.83675 C389.594834,231.067583 388.094418,231.183 387.078751,231.183 Z M412.053526,202.2365 C416.254693,202.2365 419.624859,203.459917 422.164026,205.90675 C424.703193,208.353583 425.972776,211.86225 425.972776,216.43275 L425.972776,237 L419.186276,237 L419.186276,233.19125 C416.647109,236.23825 413.023026,237.76175 408.314026,237.76175 C404.759193,237.76175 401.896859,236.8615 399.727026,235.061 C397.557193,233.2605 396.472276,230.882917 396.472276,227.92825 C396.472276,224.973583 397.603359,222.619083 399.865526,220.86475 C402.127693,219.110417 405.174693,218.23325 409.006526,218.23325 L418.632276,218.23325 L418.632276,216.01725 C418.632276,213.66275 417.997484,211.86225 416.727901,210.61575 C415.458318,209.36925 413.669359,208.746 411.361026,208.746 C407.944693,208.746 404.805359,210.431083 401.943026,213.80125 L397.718776,209.50775 C401.135109,204.66025 405.913359,202.2365 412.053526,202.2365 Z M409.837526,232.1525 C412.284359,232.1525 414.361859,231.39075 416.070026,229.86725 C417.778193,228.34375 418.632276,226.427833 418.632276,224.1195 L418.632276,223.49625 L409.906776,223.49625 C405.890276,223.49625 403.882026,224.88125 403.882026,227.65125 C403.882026,229.082417 404.436026,230.190417 405.544026,230.97525 C406.652026,231.760083 408.083193,232.1525 409.837526,232.1525 Z M471.282576,231.183 C469.066576,231.183 467.393034,230.744417 466.261951,229.86725 C465.130868,228.990083 464.565326,227.466583 464.565326,225.29675 L464.565326,209.3 L474.675826,209.3 L474.675826,202.99825 L464.565326,202.99825 L464.565326,194.065 L457.224826,194.065 L457.224826,202.99825 L451.684826,202.99825 L451.684826,209.3 L457.224826,209.3 L457.224826,225.92 C457.224826,229.890333 458.332826,232.856542 460.548826,234.818625 C462.764826,236.780708 465.834909,237.76175 469.759076,237.76175 C471.467243,237.76175 473.475493,237.507833 475.783826,237 L475.783826,230.83675 C473.798659,231.067583 472.298243,231.183 471.282576,231.183 Z M498.265601,202.2365 C503.251601,202.2365 507.510476,203.944667 511.042226,207.361 C514.573976,210.777333 516.339851,214.9785 516.339851,219.9645 C516.339851,224.9505 514.573976,229.163208 511.042226,232.602625 C507.510476,236.042042 503.251601,237.76175 498.265601,237.76175 C493.233434,237.715583 488.986101,235.984333 485.523601,232.568 C482.061101,229.151667 480.329851,224.9505 480.329851,219.9645 C480.329851,214.9785 482.061101,210.777333 485.523601,207.361 C488.986101,203.944667 493.233434,202.2365 498.265601,202.2365 Z M498.334851,208.8845 C495.287851,208.930667 492.760226,210.004042 490.751976,212.104625 C488.743726,214.205208 487.739601,216.84825 487.739601,220.03375 C487.739601,223.173083 488.732184,225.793042 490.717351,227.893625 C492.702518,229.994208 495.218601,231.0445 498.265601,231.0445 C501.266434,231.0445 503.782518,229.994208 505.813851,227.893625 C507.845184,225.793042 508.860851,223.173083 508.860851,220.03375 C508.860851,216.84825 507.856726,214.205208 505.848476,212.104625 C503.840226,210.004042 501.335684,208.930667 498.334851,208.8845 Z M571.483151,191.295 L558.325651,223.08075 L545.168151,191.295 L536.927401,191.295 L557.079151,237.76175 L559.572151,237.76175 L579.723901,191.295 L571.483151,191.295 Z M590.225426,185.478 C588.840426,185.478 587.663176,185.951208 586.693676,186.897625 C585.724176,187.844042 585.239426,188.986667 585.239426,190.3255 C585.239426,191.664333 585.724176,192.795417 586.693676,193.71875 C587.663176,194.642083 588.840426,195.10375 590.225426,195.10375 C591.564259,195.10375 592.718426,194.642083 593.687926,193.71875 C594.657426,192.795417 595.142176,191.664333 595.142176,190.3255 C595.142176,188.986667 594.657426,187.844042 593.687926,186.897625 C592.718426,185.951208 591.564259,185.478 590.225426,185.478 Z M593.826426,202.99825 L586.555176,202.99825 L586.555176,237 L593.826426,237 L593.826426,202.99825 Z M635.559702,217.81775 C635.559702,219.248917 635.375034,220.772417 635.005702,222.38825 L609.660202,222.38825 C610.121869,225.204417 611.345284,227.397333 613.330452,228.967 C615.315619,230.536667 617.785534,231.3215 620.740202,231.3215 C624.295034,231.3215 627.595952,229.982667 630.642952,227.305 L634.105452,232.291 C630.227452,235.938167 625.703119,237.76175 620.532452,237.76175 C615.269452,237.76175 610.906702,236.065125 607.444202,232.671875 C603.981702,229.278625 602.250452,225.065917 602.250452,220.03375 C602.250452,215.04775 603.947077,210.835042 607.340327,207.395625 C610.733577,203.956208 614.900119,202.2365 619.839952,202.2365 C624.364284,202.2365 628.115327,203.713833 631.093077,206.6685 C634.070827,209.623167 635.559702,213.339583 635.559702,217.81775 Z M619.562952,208.39975 C617.162284,208.39975 615.073244,209.149958 613.295827,210.650375 C611.518409,212.150792 610.352702,214.170583 609.798702,216.70975 L628.288452,216.70975 C628.242284,214.170583 627.388202,212.150792 625.726202,210.650375 C624.064202,209.149958 622.009784,208.39975 619.562952,208.39975 Z M687.334227,202.99825 L678.539477,224.9505 L668.082727,202.2365 L665.589727,202.2365 L655.271477,225.2275 L646.338227,202.99825 L638.582227,202.99825 L653.678727,237.76175 L656.171727,237.76175 L666.836227,215.117 L677.500727,237.76175 L679.993727,237.76175 L695.090227,202.99825 L687.334227,202.99825 Z M711.547252,202.2365 C708.084752,202.2365 705.222419,203.113667 702.960252,204.868 C700.698085,206.622333 699.567002,209.023 699.567002,212.07 C699.567002,214.470667 700.294127,216.409667 701.748377,217.887 C703.202627,219.364333 705.430169,220.72625 708.431002,221.97275 L711.893502,223.427 C713.555502,224.1195 714.767377,224.74275 715.529127,225.29675 C716.290877,225.85075 716.671752,226.635583 716.671752,227.65125 C716.671752,228.89775 716.152377,229.844167 715.113627,230.4905 C714.074877,231.136833 712.770669,231.46 711.201002,231.46 C707.923169,231.46 704.737669,229.844167 701.644502,226.6125 L697.489502,231.183 C700.859669,235.568833 705.430169,237.76175 711.201002,237.76175 C714.802002,237.76175 717.802835,236.849958 720.203502,235.026375 C722.604169,233.202792 723.804502,230.652083 723.804502,227.37425 C723.804502,224.973583 723.065835,222.999958 721.588502,221.453375 C720.111169,219.906792 717.756669,218.464083 714.525002,217.12525 L711.270252,215.8095 C709.608252,215.163167 708.442544,214.551458 707.773127,213.974375 C707.10371,213.397292 706.769002,212.670167 706.769002,211.793 C706.769002,209.623167 708.315585,208.53825 711.408752,208.53825 C714.501919,208.53825 717.156502,209.692417 719.372502,212.00075 L723.319752,207.4995 C720.365085,203.990833 716.440919,202.2365 711.547252,202.2365 Z M795.083052,202.72125 L787.119302,221.83425 L777.632052,201.9595 L774.515802,201.9595 L765.236302,222.24975 L757.064802,202.72125 L747.231302,202.72125 L763.158802,237.831 L766.205802,237.831 L776.039302,217.887 L785.942052,237.831 L788.989052,237.831 L804.916552,202.72125 L795.083052,202.72125 Z M815.071762,184.43925 C813.409762,184.43925 812.001679,184.99325 810.847512,186.10125 C809.693345,187.20925 809.116262,188.59425 809.116262,190.25625 C809.116262,191.872083 809.693345,193.234 810.847512,194.342 C812.001679,195.45 813.409762,196.004 815.071762,196.004 C816.733762,196.004 818.153387,195.45 819.330637,194.342 C820.507887,193.234 821.096512,191.872083 821.096512,190.25625 C821.096512,188.59425 820.507887,187.20925 819.330637,186.10125 C818.153387,184.99325 816.733762,184.43925 815.071762,184.43925 Z M819.780762,202.72125 L810.432012,202.72125 L810.432012,237 L819.780762,237 L819.780762,202.72125 Z M846.694473,229.45175 C844.478473,229.45175 842.86264,229.047792 841.846973,228.239875 C840.831306,227.431958 840.323473,226.0585 840.323473,224.1195 L840.323473,210.61575 L850.018473,210.61575 L850.018473,202.72125 L840.323473,202.72125 L840.323473,194.065 L830.974723,194.065 L830.974723,202.72125 L825.573223,202.72125 L825.573223,210.61575 L830.974723,210.61575 L830.974723,224.9505 C830.974723,229.244 832.175056,232.464125 834.575723,234.610875 C836.97639,236.757625 840.346556,237.831 844.686223,237.831 C846.763723,237.831 848.910473,237.554 851.126473,237 L851.126473,229.17475 C848.725806,229.359417 847.248473,229.45175 846.694473,229.45175 Z M876.724433,201.9595 C872.8926,201.9595 869.753266,203.182917 867.306433,205.62975 L867.306433,185.0625 L857.957683,185.0625 L857.957683,237 L867.306433,237 L867.306433,217.056 C867.306433,215.070833 867.918141,213.466542 869.141558,212.243125 C870.364975,211.019708 871.9231,210.408 873.815933,210.408 C875.708766,210.408 877.243808,211.019708 878.421058,212.243125 C879.598308,213.466542 880.186933,215.070833 880.186933,217.056 L880.186933,237 L889.466433,237 L889.466433,215.74025 C889.466433,211.58525 888.312266,208.249708 886.003933,205.733625 C883.6956,203.217542 880.602433,201.9595 876.724433,201.9595 Z M914.925894,201.9595 C920.004227,201.9595 924.343894,203.679208 927.944894,207.118625 C931.545894,210.558042 933.346394,214.793833 933.346394,219.826 C933.346394,224.858167 931.545894,229.1055 927.944894,232.568 C924.343894,236.0305 919.981144,237.76175 914.856644,237.76175 C909.732144,237.76175 905.404019,236.042042 901.872269,232.602625 C898.340519,229.163208 896.574644,224.904333 896.574644,219.826 C896.574644,214.793833 898.352061,210.558042 901.906894,207.118625 C905.461727,203.679208 909.801394,201.9595 914.925894,201.9595 Z M914.925894,210.47725 C912.340561,210.47725 910.216894,211.365958 908.554894,213.143375 C906.892894,214.920792 906.061894,217.171417 906.061894,219.89525 C906.061894,222.619083 906.892894,224.846625 908.554894,226.577875 C910.216894,228.309125 912.340561,229.17475 914.925894,229.17475 C917.465061,229.17475 919.577186,228.297583 921.262269,226.54325 C922.947352,224.788917 923.789894,222.572917 923.789894,219.89525 C923.789894,217.217583 922.947352,214.9785 921.262269,213.178 C919.577186,211.3775 917.465061,210.47725 914.925894,210.47725 Z M971.894104,202.72125 L962.545354,202.72125 L962.545354,222.66525 C962.545354,224.650417 961.933646,226.243167 960.710229,227.4435 C959.486812,228.643833 957.974854,229.244 956.174354,229.244 C954.281521,229.244 952.723396,228.643833 951.499979,227.4435 C950.276562,226.243167 949.664854,224.650417 949.664854,222.66525 L949.664854,202.72125 L940.316104,202.72125 L940.316104,221.9035 C940.316104,226.704833 941.804979,230.55975 944.782729,233.46825 C947.760479,236.37675 951.557687,237.831 956.174354,237.831 C960.698687,237.831 964.449729,236.365208 967.427479,233.433625 C970.405229,230.502042 971.894104,226.658667 971.894104,221.9035 L971.894104,202.72125 Z M998.461565,229.45175 C996.245565,229.45175 994.629732,229.047792 993.614065,228.239875 C992.598398,227.431958 992.090565,226.0585 992.090565,224.1195 L992.090565,210.61575 L1001.78556,210.61575 L1001.78556,202.72125 L992.090565,202.72125 L992.090565,194.065 L982.741815,194.065 L982.741815,202.72125 L977.340315,202.72125 L977.340315,210.61575 L982.741815,210.61575 L982.741815,224.9505 C982.741815,229.244 983.942148,232.464125 986.342815,234.610875 C988.743482,236.757625 992.113648,237.831 996.453315,237.831 C998.530815,237.831 1000.67756,237.554 1002.89356,237 L1002.89356,229.17475 C1000.4929,229.359417 999.015565,229.45175 998.461565,229.45175 Z M1071.19424,190.53325 L1052.01199,216.0865 L1032.82974,190.53325 L1030.26749,190.53325 L1030.26749,237 L1037.60799,237 L1037.60799,208.3305 L1050.76549,225.5045 L1053.25849,225.5045 L1066.34674,208.3305 L1066.34674,237 L1073.68724,237 L1073.68724,190.53325 L1071.19424,190.53325 Z M1097.4847,202.2365 C1101.68586,202.2365 1105.05603,203.459917 1107.5952,205.90675 C1110.13436,208.353583 1111.40395,211.86225 1111.40395,216.43275 L1111.40395,237 L1104.61745,237 L1104.61745,233.19125 C1102.07828,236.23825 1098.4542,237.76175 1093.7452,237.76175 C1090.19036,237.76175 1087.32803,236.8615 1085.1582,235.061 C1082.98836,233.2605 1081.90345,230.882917 1081.90345,227.92825 C1081.90345,224.973583 1083.03453,222.619083 1085.2967,220.86475 C1087.55886,219.110417 1090.60586,218.23325 1094.4377,218.23325 L1104.06345,218.23325 L1104.06345,216.01725 C1104.06345,213.66275 1103.42865,211.86225 1102.15907,210.61575 C1100.88949,209.36925 1099.10053,208.746 1096.7922,208.746 C1093.37586,208.746 1090.23653,210.431083 1087.3742,213.80125 L1083.14995,209.50775 C1086.56628,204.66025 1091.34453,202.2365 1097.4847,202.2365 Z M1095.2687,232.1525 C1097.71553,232.1525 1099.79303,231.39075 1101.5012,229.86725 C1103.20936,228.34375 1104.06345,226.427833 1104.06345,224.1195 L1104.06345,223.49625 L1095.33795,223.49625 C1091.32145,223.49625 1089.3132,224.88125 1089.3132,227.65125 C1089.3132,229.082417 1089.8672,230.190417 1090.9752,230.97525 C1092.0832,231.760083 1093.51436,232.1525 1095.2687,232.1525 Z M1148.22041,202.99825 L1154.93766,202.99825 L1154.93766,233.46825 C1154.93766,238.823583 1153.39107,242.9555 1150.29791,245.864 C1147.20474,248.7725 1143.07282,250.22675 1137.90216,250.22675 C1131.57732,250.22675 1126.12966,248.08 1121.55916,243.7865 L1125.57566,238.73125 C1129.54599,241.962917 1133.51632,243.57875 1137.48666,243.57875 C1140.57982,243.57875 1143.04974,242.759292 1144.89641,241.120375 C1146.74307,239.481458 1147.66641,237.06925 1147.66641,233.88375 L1147.66641,231.52925 C1144.89641,234.71475 1141.06457,236.3075 1136.17091,236.3075 C1131.41574,236.3075 1127.46849,234.71475 1124.32916,231.52925 C1121.18982,228.34375 1119.62016,224.258 1119.62016,219.272 C1119.62016,214.286 1121.18982,210.20025 1124.32916,207.01475 C1127.46849,203.82925 1131.41574,202.2365 1136.17091,202.2365 C1141.48007,202.2365 1145.49657,204.10625 1148.22041,207.84575 L1148.22041,202.99825 Z M1137.48666,229.9365 C1140.30282,229.9365 1142.71503,229.013167 1144.72328,227.1665 C1146.73153,225.319833 1147.73566,222.66525 1147.73566,219.20275 C1147.73566,215.74025 1146.73153,213.131833 1144.72328,211.3775 C1142.71503,209.623167 1140.30282,208.746 1137.48666,208.746 C1134.53199,208.746 1132.06207,209.7155 1130.07691,211.6545 C1128.09174,213.5935 1127.09916,216.132667 1127.09916,219.272 C1127.09916,222.4575 1128.09174,225.031292 1130.07691,226.993375 C1132.06207,228.955458 1134.53199,229.9365 1137.48666,229.9365 Z M1169.17862,185.478 C1167.79362,185.478 1166.61637,185.951208 1165.64687,186.897625 C1164.67737,187.844042 1164.19262,188.986667 1164.19262,190.3255 C1164.19262,191.664333 1164.67737,192.795417 1165.64687,193.71875 C1166.61637,194.642083 1167.79362,195.10375 1169.17862,195.10375 C1170.51745,195.10375 1171.67162,194.642083 1172.64112,193.71875 C1173.61062,192.795417 1174.09537,191.664333 1174.09537,190.3255 C1174.09537,188.986667 1173.61062,187.844042 1172.64112,186.897625 C1171.67162,185.951208 1170.51745,185.478 1169.17862,185.478 Z M1172.77962,202.99825 L1165.50837,202.99825 L1165.50837,237 L1172.77962,237 L1172.77962,202.99825 Z M1199.20858,202.2365 C1194.17641,202.2365 1189.91754,203.944667 1186.43195,207.361 C1182.94637,210.777333 1181.20358,214.9785 1181.20358,219.9645 C1181.20358,224.9505 1182.94637,229.163208 1186.43195,232.602625 C1189.91754,236.042042 1194.17641,237.76175 1199.20858,237.76175 C1205.48725,237.76175 1210.2655,235.13025 1213.54333,229.86725 L1208.41883,225.92 C1205.92583,229.336333 1202.87883,231.0445 1199.27783,231.0445 C1196.18466,231.0445 1193.63395,229.994208 1191.6257,227.893625 C1189.61745,225.793042 1188.61333,223.15 1188.61333,219.9645 C1188.61333,216.871333 1189.61745,214.262917 1191.6257,212.13925 C1193.63395,210.015583 1196.18466,208.95375 1199.27783,208.95375 C1202.925,208.95375 1205.972,210.685 1208.41883,214.1475 L1213.54333,210.131 C1212.066,207.684167 1210.09237,205.756708 1207.62245,204.348625 C1205.15254,202.940542 1202.34791,202.2365 1199.20858,202.2365 Z" id="Sending-Data-to-View"></path>
                </g>
            </g>
        </g>
    </g>
</svg>